<?xml version="1.0" standalone="no"?>
<!DOCTYPE svg PUBLIC "-//W3C//DTD SVG 20010904//EN"
 "http://www.w3.org/TR/2001/REC-SVG-20010904/DTD/svg10.dtd">
<svg version="1.0" xmlns="http://www.w3.org/2000/svg"
 width="118.000000pt" height="118.000000pt" viewBox="0 0 118.000000 118.000000"
 preserveAspectRatio="xMidYMid meet">
<metadata>
Created by potrace 1.14, written by Peter Selinger 2001-2017
</metadata>
<g transform="translate(0.000000,118.000000) scale(0.100000,-0.100000)"
fill="#000000" stroke="none">
<path d="M108 1154 c-29 -15 -59 -41 -75 -66 l-28 -42 0 -457 0 -457 31 -43
c18 -24 51 -54 75 -66 42 -23 45 -23 479 -23 434 0 437 0 479 23 24 12 57 42
75 66 l31 43 0 457 0 457 -28 43 c-20 29 -44 50 -80 67 l-52 24 -430 -1 -430
0 -47 -25z m334 -110 c4 -3 4 -12 1 -20 -4 -12 -15 -14 -42 -9 -47 8 -69 -9
-81 -60 -15 -62 -13 -65 25 -65 28 0 35 -4 35 -20 0 -17 -7 -20 -38 -20 l-39
0 -16 -137 c-10 -76 -17 -141 -17 -145 0 -5 11 -8 25 -8 18 0 25 5 25 20 0 11
7 23 16 27 18 7 36 -15 29 -34 -3 -10 76 -13 375 -13 373 0 380 0 380 -20 0
-20 -7 -20 -426 -20 -365 0 -428 -2 -440 -15 -20 -20 -32 -19 -36 3 -2 9 -12
-50 -22 -133 -22 -190 -24 -195 -48 -195 -16 0 -19 5 -14 27 8 42 36 264 36
290 0 21 -5 23 -45 23 -38 0 -45 3 -45 20 0 17 7 20 49 20 44 0 50 3 53 22 2
13 11 24 21 26 13 3 17 -3 17 -24 0 -54 9 -17 24 101 21 154 20 162 -4 168
-29 7 -26 37 4 37 21 0 25 7 35 58 11 57 34 91 71 105 15 6 78 -1 92 -9z m3
-191 c-3 -27 -9 -59 -11 -73 -3 -16 4 -9 20 21 27 50 81 102 100 96 22 -7 18
-37 -7 -46 -42 -16 -127 -174 -127 -237 0 -27 -4 -34 -20 -34 -25 0 -25 7 -4
170 19 149 19 150 40 150 14 0 15 -7 9 -47z m335 30 c0 -10 -8 -82 -17 -160
-15 -128 -19 -143 -36 -143 -17 0 -19 5 -12 48 3 26 9 58 12 72 4 21 1 20 -17
-10 -29 -46 -91 -110 -106 -110 -25 0 -44 44 -44 100 0 138 65 219 178 220 33
0 42 -4 42 -17z m244 -3 c5 -5 6 -16 3 -24 -5 -13 -11 -14 -31 -5 -19 9 -33 9
-57 -1 -45 -19 -71 -81 -67 -163 3 -59 4 -62 30 -65 20 -2 32 4 49 27 26 35
49 40 49 12 0 -45 -99 -98 -136 -73 -52 34 -40 215 18 269 43 40 113 52 142
23z m-674 -390 c0 -5 -7 -58 -15 -117 -8 -59 -16 -126 -17 -148 -3 -34 -7 -41
-27 -43 -22 -3 -23 -1 -18 30 5 26 37 274 37 285 0 2 9 3 20 3 11 0 20 -4 20
-10z m235 -15 c20 -20 25 -34 25 -78 0 -126 -59 -217 -140 -217 -55 0 -75 32
-74 116 2 148 115 254 189 179z m139 -37 c-19 -90 -17 -99 12 -48 32 56 83
110 104 110 9 0 25 -9 35 -20 17 -19 17 -25 -1 -157 -19 -130 -21 -138 -43
-141 -20 -3 -23 0 -18 20 19 78 38 241 29 250 -21 21 -142 -178 -142 -235 0
-30 -4 -37 -20 -37 -25 0 -25 5 -4 169 19 153 19 151 42 151 19 0 19 -3 6 -62z
m354 51 c21 -7 29 -15 25 -25 -4 -12 -15 -14 -44 -9 -30 5 -42 2 -58 -14 -12
-12 -21 -26 -21 -32 0 -6 23 -32 50 -57 43 -39 50 -50 50 -83 0 -48 -44 -89
-96 -89 -42 0 -74 15 -74 35 0 20 20 29 33 16 15 -15 70 -14 85 1 23 23 12 54
-32 96 -25 23 -48 51 -51 63 -10 31 13 75 48 93 38 19 45 19 85 5z"/>
<path d="M668 845 c-38 -21 -68 -90 -68 -158 0 -31 4 -57 9 -57 22 0 131 173
131 208 0 26 -31 29 -72 7z"/>
<path d="M480 430 c-27 -28 -50 -100 -50 -151 0 -34 19 -59 46 -59 53 0 94 74
94 171 0 74 -40 92 -90 39z"/>
</g>
</svg>
